<svg width="214" height="24" viewBox="0 0 214 24" fill="none" xmlns="http://www.w3.org/2000/svg">
<path d="M7.05114 22.5058C5.3263 22.5058 3.63283 22.07 1.93935 21.1673C1.62574 21.0117 1.37486 21.0739 1.1867 21.3541L1.02989 21.572C0.873089 21.8521 0.93581 22.1012 1.24942 22.3191C2.72337 23.3152 4.66773 23.8132 7.11386 23.8132C11.473 23.8132 13.6996 21.8521 13.6996 18.6459C13.731 14.8794 10.1872 13.8521 7.49019 13.2607C5.63991 12.7938 4.1346 12.1089 4.1346 10.7704C4.1346 9.40078 5.35766 8.4358 7.64699 8.4358C9.24639 8.4358 10.7517 8.87159 12.1316 9.71206C12.5079 9.96109 12.6647 9.96109 12.8842 9.61868L13.0097 9.46303C13.2606 9.08949 13.2292 8.99611 12.9469 8.74708C11.6298 7.68872 9.8736 7.15953 7.67835 7.15953C3.31922 7.15953 1.12397 9.21401 1.12397 12.4202C1.06125 16.0934 4.66773 16.9027 7.30203 17.4942C9.18367 17.8988 10.689 18.6459 10.689 20.1089C10.689 21.5097 9.55999 22.5058 7.05114 22.5058Z" fill="white"/>
<path d="M16.0867 15.5642C16.0867 20.1401 18.3447 23.9066 23.9582 23.9066C26.6239 23.9066 28.631 23.1284 29.9167 21.6031C31.2025 20.0467 31.8611 18.0233 31.8611 15.5642C31.8611 13.1051 31.2025 11.1128 29.9167 9.52529C28.631 7.93774 26.6239 7.15953 23.9582 7.15953C21.2926 7.15953 19.3168 7.93774 18.031 9.52529C16.7453 11.1128 16.0867 13.1051 16.0867 15.5642ZM23.9582 8.49805C26.4357 8.49805 27.6901 10.8638 27.6901 15.5953C27.6901 20.2335 26.4357 22.5681 23.9582 22.5681C21.5434 22.5681 20.3204 20.2335 20.3204 15.5953C20.3204 11.1128 21.5434 8.49805 23.9582 8.49805Z" fill="white"/>
<path d="M34.2477 15.5642C34.2477 20.1401 36.5057 23.9066 42.1192 23.9066C44.7849 23.9066 46.792 23.1284 48.0778 21.6031C49.3635 20.0467 50.0221 18.0233 50.0221 15.5642C50.0221 13.1051 49.3635 11.1128 48.0778 9.52529C46.792 7.93774 44.7849 7.15953 42.1192 7.15953C39.4536 7.15953 37.4778 7.93774 36.1921 9.52529C34.9063 11.1128 34.2477 13.1051 34.2477 15.5642ZM42.1192 8.49805C44.5967 8.49805 45.8511 10.8638 45.8511 15.5953C45.8511 20.2335 44.5967 22.5681 42.1192 22.5681C39.7045 22.5681 38.4814 20.2335 38.4814 15.5953C38.4814 11.1128 39.7045 8.49805 42.1192 8.49805Z" fill="white"/>
<path d="M66.2701 23.5953C67.1482 23.5953 67.3364 23.3774 67.3364 22.6303L67.3364 13.2607C67.3364 9.18288 65.737 7.15953 62.5696 7.15953C59.7785 7.15953 57.9595 8.46692 57.1128 11.1128L57.1128 8.46692C57.1128 7.71984 56.956 7.50194 56.1093 7.50194L54.2276 7.50194C53.3809 7.50194 53.1927 7.71984 53.1927 8.46692L53.1927 22.6303C53.1927 23.4086 53.3809 23.5953 54.2276 23.5953L56.1093 23.5953C56.956 23.5953 57.1128 23.3774 57.1128 22.6303L57.1128 17.0272C57.1128 12.1401 58.4613 8.99611 61.0643 8.99611C62.695 8.99611 63.3849 10.2101 63.3849 13.0739L63.3849 22.6303C63.3849 23.4086 63.5418 23.5953 64.4199 23.5953L66.2701 23.5953Z" fill="white"/>
<path d="M71.9241 18.7393C71.9241 22.1012 73.5549 23.7821 76.785 23.7821C78.0081 23.7821 79.0743 23.5019 79.9211 22.9728C80.2033 22.8171 80.2347 22.5992 80.0779 22.3191L79.9838 22.07C79.8584 21.821 79.6702 21.7899 79.4193 21.9455C79.0116 22.1323 78.4785 22.2257 77.8513 22.2257C76.5028 22.2257 75.8442 21.0739 75.8442 18.7393L75.8442 8.84046L78.9489 8.84046C79.4507 8.84046 79.5761 8.71595 79.5761 8.18677L79.5761 8.12451C79.5761 7.62646 79.4507 7.50194 78.9489 7.50194L75.8442 7.50194L75.8442 3.33073C75.8442 2.83268 75.6874 2.7393 75.1543 2.7393C74.9975 2.7393 74.9034 2.77042 74.8093 2.80155C74.6839 2.83268 74.5584 3.05058 74.4643 3.45525C73.9939 5.97665 72.6454 7.47081 70.6697 7.50194L70.4815 7.50194C69.9484 7.50194 69.8229 7.65758 69.8229 8.12451L69.8229 8.2179C69.8229 8.71595 69.8543 8.84046 70.4815 8.84046L71.9241 8.84046L71.9241 18.7393Z" fill="white"/>
<path d="M80.9824 15.5642C80.9824 20.1401 83.2404 23.9066 88.854 23.9066C91.5196 23.9066 93.5267 23.1284 94.8125 21.6031C96.0983 20.0467 96.7569 18.0233 96.7569 15.5642C96.7569 13.1051 96.0983 11.1128 94.8125 9.52529C93.5267 7.93774 91.5196 7.15953 88.854 7.15953C86.1883 7.15953 84.2126 7.93774 82.9268 9.52529C81.641 11.1128 80.9824 13.1051 80.9824 15.5642ZM88.854 8.49805C91.3315 8.49805 92.5859 10.8638 92.5859 15.5953C92.5859 20.2335 91.3315 22.5681 88.854 22.5681C86.4392 22.5681 85.2161 20.2335 85.2161 15.5953C85.2161 11.1128 86.4392 8.49805 88.854 8.49805Z" fill="white"/>
<path d="M100.931 0.404662C100.084 0.404662 99.8961 0.591434 99.8961 1.33852L99.8961 12.3891L99.8647 12.3891L99.8647 21.9455C99.8647 22.4124 100.053 22.7549 100.398 22.9728C101.151 23.4397 103.471 24 105.949 24C112.064 24 114.981 21.323 114.981 15.2218C114.981 9.83657 112.848 7.15953 109.21 7.15953C106.356 7.15953 104.443 8.90272 103.848 10.8949L103.848 1.33852C103.848 0.591434 103.659 0.404662 102.813 0.404662L100.931 0.404662ZM107.674 9.08949C109.837 9.08949 110.747 11.144 110.747 15.2529C110.747 20.2957 109.242 22.8171 106.2 22.8171C105.353 22.8171 104.537 22.7237 103.816 22.5058L103.816 15.6887C103.942 11.4552 105.572 9.08949 107.674 9.08949Z" fill="white"/>
<path d="M125.078 7.15953C122.632 7.15953 120.75 7.93774 119.433 9.49416C118.116 11.0194 117.458 13.0428 117.458 15.5642C117.458 20.9183 120.813 23.8132 126.176 23.8132C128.214 23.8132 129.971 23.3774 131.507 22.4747C131.758 22.3191 131.821 22.1323 131.664 21.8521L131.601 21.6654C131.507 21.4475 131.288 21.4163 130.974 21.572C129.531 22.2257 128.183 22.537 126.929 22.537C123.51 22.537 121.754 20.358 121.629 15.9689L130.943 15.9689C131.539 15.9689 131.727 15.5331 131.727 14.3813C131.727 9.55641 129.5 7.15953 125.078 7.15953ZM125.078 8.40466C126.866 8.40466 127.901 10.0856 127.901 12.9805C127.901 14.3502 127.681 14.786 126.709 14.786L121.629 14.786C121.723 10.5214 122.883 8.40466 125.078 8.40466Z" fill="white"/>
<path d="M134.178 7.50194C133.645 7.50194 133.519 7.65758 133.519 8.15564L133.519 8.18676C133.519 8.71595 133.551 8.84046 134.178 8.84046L135.965 8.84046L135.965 22.6303C135.965 23.3774 136.153 23.5953 137 23.5953L138.882 23.5953C139.729 23.5953 139.917 23.3774 139.917 22.6303L139.917 8.84046L143.586 8.84046C144.088 8.84046 144.182 8.71595 144.182 8.18676L144.182 8.12451C144.182 7.62645 144.056 7.50194 143.555 7.50194L139.917 7.50194L139.917 5.85213C139.917 2.70816 140.826 1.4319 142.708 1.4319C143.241 1.4319 143.711 1.52528 144.182 1.74318C144.495 1.89882 144.715 1.83657 144.809 1.55641L144.966 1.24513C145.123 0.902715 145.029 0.684815 144.746 0.591431C144.025 0.186762 143.147 -7.91146e-06 142.143 -7.85562e-06C138.098 -7.63054e-06 135.965 2.42801 135.965 6.63034L135.965 7.50194L134.178 7.50194Z" fill="white"/>
<path d="M144.623 15.5642C144.623 20.1401 146.881 23.9066 152.494 23.9066C155.16 23.9066 157.167 23.1284 158.453 21.6031C159.738 20.0467 160.397 18.0233 160.397 15.5642C160.397 13.105 159.738 11.1128 158.453 9.52528C157.167 7.93773 155.16 7.15952 152.494 7.15953C149.828 7.15953 147.853 7.93773 146.567 9.52528C145.281 11.1128 144.623 13.1051 144.623 15.5642ZM152.494 8.49805C154.972 8.49805 156.226 10.8638 156.226 15.5953C156.226 20.2335 154.972 22.5681 152.494 22.5681C150.079 22.5681 148.856 20.2335 148.856 15.5953C148.856 11.1128 150.079 8.49805 152.494 8.49805Z" fill="white"/>
<path d="M174.669 7.50194C173.823 7.50194 173.666 7.71983 173.666 8.46692L173.666 13.6342C173.666 17.5875 172.944 20.1401 171.533 21.2918C171.063 21.6654 170.436 21.8521 169.683 21.8521C168.146 21.8521 167.394 20.6381 167.394 18.179L167.394 8.46692C167.394 7.71983 167.205 7.50194 166.359 7.50194L164.477 7.50194C163.63 7.50194 163.442 7.71983 163.442 8.46692L163.442 18.4591C163.442 21.9766 165.23 23.751 168.805 23.751C171.157 23.751 172.819 22.7237 173.791 20.6381C174.105 22.6615 174.983 23.6887 176.394 23.6887L176.896 23.6887C177.492 23.6887 177.617 23.4708 177.617 22.8171L177.617 17.6809L177.586 17.6809L177.586 8.46692C177.586 7.71983 177.398 7.50194 176.551 7.50194L174.669 7.50194Z" fill="white"/>
<path d="M194.653 23.5953C195.531 23.5953 195.719 23.3774 195.719 22.6303L195.719 13.2607C195.719 9.18287 194.12 7.15952 190.952 7.15952C188.161 7.15952 186.342 8.46692 185.496 11.1128L185.496 8.46692C185.496 7.71983 185.339 7.50193 184.492 7.50193L182.61 7.50193C181.764 7.50193 181.575 7.71983 181.575 8.46692L181.575 22.6303C181.575 23.4085 181.764 23.5953 182.61 23.5953L184.492 23.5953C185.339 23.5953 185.496 23.3774 185.496 22.6303L185.496 17.0272C185.496 12.1401 186.844 8.9961 189.447 8.9961C191.078 8.9961 191.768 10.2101 191.768 13.0739L191.768 22.6303C191.768 23.4085 191.924 23.5953 192.803 23.5953L194.653 23.5953Z" fill="white"/>
<path d="M211.031 0.404656C210.184 0.404656 209.996 0.591428 209.996 1.33851L209.996 8.49804C209.086 7.59532 207.926 7.15952 206.483 7.15952C201.811 7.15952 198.831 10.5525 198.831 16.1868C198.831 21.5097 201.372 23.7198 205.166 23.7198C206.734 23.7198 207.989 23.284 208.93 22.4436C209.431 22.0078 209.839 21.4475 210.153 20.7626C210.466 22.7237 211.313 23.6887 212.724 23.6887L213.226 23.6887C213.759 23.6887 213.947 23.4397 213.947 22.8171L213.947 1.33851C213.947 0.591428 213.759 0.404656 212.912 0.404656L211.031 0.404656ZM206.201 22.1012C204.037 22.1012 202.971 20.1089 202.971 16.1245C202.971 11.2996 204.32 8.68481 206.954 8.68481C208.365 8.68481 209.369 9.24512 209.996 10.3969L209.996 15.751C209.776 19.9844 208.522 22.1012 206.201 22.1012Z" fill="white"/>
</svg>
