<svg width="1080" height="1080" viewBox="0 0 1080 1080" fill="none" xmlns="http://www.w3.org/2000/svg">
<rect width="1080" height="1080" fill="black"/>
<path d="M346.595 839.996C298.106 839.996 250.498 827.661 202.89 802.111C194.074 797.706 187.021 799.468 181.731 807.397L177.323 813.565C172.915 821.494 174.678 828.542 183.494 834.71C224.931 862.903 279.591 877 348.358 877C470.904 877 533.5 821.494 533.5 730.746C534.381 624.14 434.758 595.065 358.938 578.325C306.922 565.11 264.604 545.727 264.604 507.842C264.604 469.076 298.987 441.763 363.346 441.763C408.309 441.763 450.627 454.098 489.418 477.886C499.998 484.935 504.406 484.935 510.577 475.243L514.104 470.838C521.157 460.265 520.275 457.622 512.341 450.574C475.312 420.618 425.941 405.641 364.227 405.641C241.681 405.641 179.968 463.79 179.968 554.537C178.204 658.501 279.591 681.408 353.648 698.148C406.545 709.601 448.863 730.746 448.863 772.156C448.863 811.803 417.125 839.996 346.595 839.996Z" fill="#FAFBFC"/>
<path d="M598.843 415.332C583.856 415.332 580.329 419.737 580.329 433.834V434.715C580.329 449.693 581.211 453.217 598.843 453.217H649.096V843.52C649.096 864.665 654.386 870.833 678.189 870.833H731.087C754.891 870.833 760.181 864.665 760.181 843.52V453.217H863.331C877.437 453.217 880.082 449.693 880.082 434.715V432.953C880.082 418.856 876.555 415.332 862.449 415.332H760.181V368.637C760.181 279.651 785.748 243.528 838.645 243.528C853.633 243.528 866.857 246.171 880.082 252.339C888.898 256.744 895.069 254.982 897.714 247.052L902.122 238.242C906.531 228.55 903.886 222.383 895.951 219.74C875.674 208.286 850.988 203 822.776 203C709.046 203 649.096 271.722 649.096 390.663V415.332H598.843Z" fill="#FAFBFC"/>
</svg>
