<svg width="896" height="101" viewBox="0 0 896 101" fill="none" xmlns="http://www.w3.org/2000/svg">
<path d="M25.6764 94.7121C18.4207 94.7121 11.297 92.8781 4.17328 89.0791C2.85407 88.4241 1.7987 88.6861 1.00717 89.8651L0.347569 90.7821C-0.312036 91.9611 -0.0481939 93.0091 1.27102 93.9261C7.4713 98.118 15.6504 100.214 25.9402 100.214C44.2772 100.214 53.6436 91.9611 53.6436 78.4682C53.7755 62.6174 38.8685 58.2944 27.5233 55.8054C19.7399 53.8405 13.4077 50.9585 13.4077 45.3255C13.4077 39.5616 18.5527 35.5006 28.1829 35.5006C34.9109 35.5006 41.2431 37.3346 47.0476 40.8716C48.6306 41.9196 49.2902 41.9196 50.2137 40.4786L50.7414 39.8236C51.7967 38.2516 51.6648 37.8586 50.4775 36.8106C44.9368 32.3567 37.5493 30.1297 28.3148 30.1297C9.9778 30.1297 0.743332 38.7756 0.743332 52.2685C0.47949 67.7263 15.6504 71.1323 26.7318 73.6213C34.647 75.3243 40.9792 78.4682 40.9792 84.6252C40.9792 90.5201 36.2301 94.7121 25.6764 94.7121Z" fill="#f5f5f5"/>
<path d="M63.6851 65.4994C63.6851 84.7562 73.1834 100.607 96.7972 100.607C108.011 100.607 116.453 97.332 121.862 90.9131C127.271 84.3632 130.041 75.8483 130.041 65.4994C130.041 55.1505 127.271 46.7665 121.862 40.0856C116.453 33.4047 108.011 30.1297 96.7972 30.1297C85.584 30.1297 77.2729 33.4047 71.8642 40.0856C66.4554 46.7665 63.6851 55.1505 63.6851 65.4994ZM96.7972 35.7626C107.219 35.7626 112.496 45.7186 112.496 65.6304C112.496 85.1492 107.219 94.9741 96.7972 94.9741C86.6393 94.9741 81.4944 85.1492 81.4944 65.6304C81.4944 46.7665 86.6393 35.7626 96.7972 35.7626Z" fill="#f5f5f5"/>
<path d="M140.081 65.4994C140.081 84.7562 149.579 100.607 173.193 100.607C184.406 100.607 192.849 97.332 198.258 90.9131C203.667 84.3632 206.437 75.8483 206.437 65.4994C206.437 55.1505 203.667 46.7665 198.258 40.0856C192.849 33.4047 184.406 30.1297 173.193 30.1297C161.98 30.1297 153.669 33.4047 148.26 40.0856C142.851 46.7665 140.081 55.1505 140.081 65.4994ZM173.193 35.7626C183.615 35.7626 188.891 45.7186 188.891 65.6304C188.891 85.1492 183.615 94.9741 173.193 94.9741C163.035 94.9741 157.89 85.1492 157.89 65.6304C157.89 46.7665 163.035 35.7626 173.193 35.7626Z" fill="#f5f5f5"/>
<path d="M274.785 99.297C278.479 99.297 279.271 98.38 279.271 95.2361V55.8054C279.271 38.6446 272.543 30.1297 259.219 30.1297C247.478 30.1297 239.826 35.6316 236.264 46.7665V35.6316C236.264 32.4877 235.605 31.5707 232.043 31.5707H224.128C220.566 31.5707 219.774 32.4877 219.774 35.6316V95.2361C219.774 98.511 220.566 99.297 224.128 99.297H232.043C235.605 99.297 236.264 98.38 236.264 95.2361V71.6563C236.264 51.0895 241.937 37.8586 252.886 37.8586C259.746 37.8586 262.649 42.9676 262.649 55.0195V95.2361C262.649 98.511 263.308 99.297 267.002 99.297H274.785Z" fill="#f5f5f5"/>
<path d="M298.569 78.8612C298.569 93.0091 305.429 100.083 319.017 100.083C324.162 100.083 328.647 98.904 332.209 96.677C333.396 96.0221 333.528 95.1051 332.869 93.9261L332.473 92.8781C331.945 91.8301 331.154 91.6991 330.098 92.3541C328.383 93.1401 326.141 93.5331 323.502 93.5331C317.83 93.5331 315.059 88.6861 315.059 78.8612V37.2036H328.12C330.23 37.2036 330.758 36.6796 330.758 34.4527V34.1907C330.758 32.0947 330.23 31.5707 328.12 31.5707H315.059V14.0169C315.059 11.9209 314.4 11.5279 312.157 11.5279C311.498 11.5279 311.102 11.6589 310.706 11.7899C310.178 11.9209 309.651 12.8379 309.255 14.5409C307.276 25.1517 301.603 31.4397 293.292 31.5707H292.501C290.258 31.5707 289.731 32.2257 289.731 34.1907V34.5837C289.731 36.6796 289.862 37.2036 292.501 37.2036H298.569V78.8612Z" fill="#f5f5f5"/>
<path d="M336.674 65.4994C336.674 84.7562 346.172 100.607 369.786 100.607C380.999 100.607 389.442 97.332 394.851 90.9131C400.26 84.3632 403.03 75.8483 403.03 65.4994C403.03 55.1505 400.26 46.7665 394.851 40.0856C389.442 33.4047 380.999 30.1297 369.786 30.1297C358.573 30.1297 350.262 33.4047 344.853 40.0856C339.444 46.7665 336.674 55.1505 336.674 65.4994ZM369.786 35.7626C380.208 35.7626 385.485 45.7186 385.485 65.6304C385.485 85.1492 380.208 94.9741 369.786 94.9741C359.628 94.9741 354.483 85.1492 354.483 65.6304C354.483 46.7665 359.628 35.7626 369.786 35.7626Z" fill="#f5f5f5"/>
<path d="M420.589 1.70298C417.027 1.70298 416.236 2.48897 416.236 5.63294V52.1375H416.104V92.3541C416.104 94.3191 416.895 95.7601 418.346 96.677C421.512 98.642 431.274 101 441.696 101C467.421 101 479.689 89.7341 479.689 64.0584C479.689 41.3956 470.719 30.1297 455.416 30.1297C443.411 30.1297 435.364 37.4656 432.858 45.8495V5.63294C432.858 2.48897 432.066 1.70298 428.504 1.70298H420.589ZM448.952 38.2516C458.054 38.2516 461.88 46.8975 461.88 64.1894C461.88 85.4112 455.548 96.0221 442.752 96.0221C439.19 96.0221 435.76 95.6291 432.726 94.7121V66.0233C433.253 48.2075 440.113 38.2516 448.952 38.2516Z" fill="#f5f5f5"/>
<path d="M522.166 30.1297C511.876 30.1297 503.961 33.4047 498.42 39.9546C492.88 46.3735 490.109 54.8885 490.109 65.4994C490.109 88.0311 504.225 100.214 526.783 100.214C535.358 100.214 542.746 98.38 549.21 94.5811C550.265 93.9261 550.529 93.1401 549.869 91.9611L549.606 91.1751C549.21 90.2581 548.286 90.1271 546.967 90.7821C540.899 93.5331 535.226 94.8431 529.949 94.8431C515.57 94.8431 508.182 85.6732 507.655 67.2023H546.835C549.342 67.2023 550.133 65.3684 550.133 60.5214C550.133 40.2166 540.767 30.1297 522.166 30.1297ZM522.166 35.3696C529.685 35.3696 534.039 42.4436 534.039 54.6265C534.039 60.3904 533.115 62.2244 529.026 62.2244H507.655C508.05 44.2776 512.931 35.3696 522.166 35.3696Z" fill="#f5f5f5"/>
<path d="M560.444 31.5707C558.201 31.5707 557.673 32.2257 557.673 34.3217V34.4527C557.673 36.6796 557.805 37.2036 560.444 37.2036H567.963V95.2361C567.963 98.38 568.755 99.297 572.316 99.297H580.232C583.794 99.297 584.585 98.38 584.585 95.2361V37.2036H600.02C602.131 37.2036 602.526 36.6796 602.526 34.4527V34.1907C602.526 32.0947 601.999 31.5707 599.888 31.5707H584.585V24.6278C584.585 11.3969 588.411 6.02594 596.326 6.02594C598.569 6.02594 600.548 6.41893 602.526 7.33593C603.846 7.99092 604.769 7.72892 605.165 6.54994L605.824 5.23994C606.484 3.79896 606.088 2.88197 604.901 2.48897C601.867 0.78599 598.173 0 593.952 0C576.934 0 567.963 10.2179 567.963 27.9027V31.5707H560.444Z" fill="#f5f5f5"/>
<path d="M604.381 65.4994C604.381 84.7562 613.879 100.607 637.493 100.607C648.706 100.607 657.149 97.332 662.558 90.9131C667.966 84.3632 670.737 75.8483 670.737 65.4994C670.737 55.1505 667.966 46.7665 662.558 40.0856C657.149 33.4047 648.706 30.1297 637.493 30.1297C626.279 30.1297 617.968 33.4047 612.56 40.0856C607.151 46.7665 604.381 55.1505 604.381 65.4994ZM637.493 35.7626C647.914 35.7626 653.191 45.7186 653.191 65.6304C653.191 85.1492 647.914 94.9741 637.493 94.9741C627.335 94.9741 622.19 85.1492 622.19 65.6304C622.19 46.7665 627.335 35.7626 637.493 35.7626Z" fill="#f5f5f5"/>
<path d="M730.774 31.5707C727.212 31.5707 726.553 32.4877 726.553 35.6316V57.3774C726.553 74.0143 723.518 84.7562 717.582 89.6031C715.603 91.1751 712.965 91.9611 709.799 91.9611C703.335 91.9611 700.168 86.8521 700.168 76.5032V35.6316C700.168 32.4877 699.377 31.5707 695.815 31.5707H687.9C684.338 31.5707 683.546 32.4877 683.546 35.6316V77.6822C683.546 92.4851 691.066 99.952 706.105 99.952C715.999 99.952 722.991 95.6291 727.08 86.8521C728.4 95.3671 732.093 99.69 738.03 99.69H740.141C742.647 99.69 743.175 98.773 743.175 96.0221V74.4073H743.043V35.6316C743.043 32.4877 742.251 31.5707 738.689 31.5707H730.774Z" fill="#f5f5f5"/>
<path d="M814.837 99.297C818.53 99.297 819.322 98.38 819.322 95.2361V55.8054C819.322 38.6446 812.594 30.1297 799.27 30.1297C787.529 30.1297 779.878 35.6316 776.316 46.7665V35.6316C776.316 32.4877 775.656 31.5707 772.094 31.5707H764.179C760.617 31.5707 759.826 32.4877 759.826 35.6316V95.2361C759.826 98.511 760.617 99.297 764.179 99.297H772.094C775.656 99.297 776.316 98.38 776.316 95.2361V71.6563C776.316 51.0895 781.988 37.8586 792.938 37.8586C799.798 37.8586 802.7 42.9676 802.7 55.0195V95.2361C802.7 98.511 803.36 99.297 807.053 99.297H814.837Z" fill="#f5f5f5"/>
<path d="M883.731 1.70298C880.17 1.70298 879.378 2.48897 879.378 5.63294V35.7626C875.552 31.9637 870.671 30.1297 864.603 30.1297C844.947 30.1297 832.414 44.4086 832.414 68.1193C832.414 90.5201 843.1 99.821 859.062 99.821C865.658 99.821 870.935 97.987 874.893 94.4501C877.003 92.6161 878.718 90.2581 880.038 87.3761C881.357 95.6291 884.919 99.69 890.855 99.69H892.966C895.208 99.69 896 98.642 896 96.0221V5.63294C896 2.48897 895.208 1.70298 891.647 1.70298H883.731ZM863.416 93.0091C854.313 93.0091 849.828 84.6252 849.828 67.8573C849.828 47.5525 855.5 36.5486 866.582 36.5486C872.518 36.5486 876.74 38.9066 879.378 43.7536V66.2853C878.455 84.1012 873.178 93.0091 863.416 93.0091Z" fill="#f5f5f5"/>
</svg>
